HIERARCHY
ROOT joint_Root
{
	OFFSET 0.0 0.0 0.0
	CHANNELS 6 Xposition Yposition Zposition Zrotation Xrotation Yrotation 
	JOINT Hips
	{
		OFFSET -0.726466 93.3139 -2.00062
		CHANNELS 6 Xposition Yposition Zposition Zrotation Xrotation Yrotation 
		JOINT Spine
		{
			OFFSET 15.7357 0.0 0.0
			CHANNELS 6 Xposition Yposition Zposition Zrotation Xrotation Yrotation 
			JOINT Chest
			{
				OFFSET 8.98455 -0.406207 0.0
				CHANNELS 6 Xposition Yposition Zposition Zrotation Xrotation Yrotation 
				JOINT Neck
				{
					OFFSET 16.3773 0.0 0.0
					CHANNELS 6 Xposition Yposition Zposition Zrotation Xrotation Yrotation 
					JOINT Head
					{
						OFFSET 6.45672 0.0 0.0
						CHANNELS 6 Xposition Yposition Zposition Zrotation Xrotation Yrotation 
						End Site
						{
							OFFSET 0.0 0.0 0.0
						}
					}
				}
				JOINT Shoulder_L
				{
					OFFSET 12.9942 -0.242716 4.98039
					CHANNELS 6 Xposition Yposition Zposition Zrotation Xrotation Yrotation 
					JOINT UpperArm_L
					{
						OFFSET 5.34809 0.0 0.0
						CHANNELS 6 Xposition Yposition Zposition Zrotation Xrotation Yrotation 
						JOINT LowerArm_L
						{
							OFFSET 24.3286 1.87007e-05 0.0
							CHANNELS 6 Xposition Yposition Zposition Zrotation Xrotation Yrotation 
							JOINT Hand_L
							{
								OFFSET 22.2916 0.0 0.0
								CHANNELS 6 Xposition Yposition Zposition Zrotation Xrotation Yrotation 
								End Site
								{
									OFFSET 0.0 0.0 0.0
								}
							}
						}
					}
				}
				JOINT Shoulder_R
				{
					OFFSET 12.9945 -0.242716 -4.98039
					CHANNELS 6 Xposition Yposition Zposition Zrotation Xrotation Yrotation 
					JOINT UpperArm_R
					{
						OFFSET -5.34813 0.0 0.0
						CHANNELS 6 Xposition Yposition Zposition Zrotation Xrotation Yrotation 
						JOINT LowerArm_R
						{
							OFFSET -24.3289 0.000322201 0.0
							CHANNELS 6 Xposition Yposition Zposition Zrotation Xrotation Yrotation 
							JOINT Hand_R
							{
								OFFSET -22.2915 -0.000108084 0.0
								CHANNELS 6 Xposition Yposition Zposition Zrotation Xrotation Yrotation 
								End Site
								{
									OFFSET 0.0 0.0 0.0
								}
							}
						}
					}
				}
			}
		}
		JOINT UpperLeg_L
		{
			OFFSET -2.19248 -6.46944 0.0
			CHANNELS 6 Xposition Yposition Zposition Zrotation Xrotation Yrotation 
			JOINT LowerLeg_L
			{
				OFFSET 39.0811 0.0 -1.23785e-05
				CHANNELS 6 Xposition Yposition Zposition Zrotation Xrotation Yrotation 
				JOINT Foot_L
				{
					OFFSET 40.9854 0.0 -1.26872e-05
					CHANNELS 6 Xposition Yposition Zposition Zrotation Xrotation Yrotation 
					JOINT Toes_L
					{
						OFFSET 11.7543 0.0 0.0
						CHANNELS 6 Xposition Yposition Zposition Zrotation Xrotation Yrotation 
						End Site
						{
							OFFSET 0.0 0.0 0.0
						}
					}
				}
			}
		}
		JOINT UpperLeg_R
		{
			OFFSET -2.19251 6.46944 0.0
			CHANNELS 6 Xposition Yposition Zposition Zrotation Xrotation Yrotation 
			JOINT LowerLeg_R
			{
				OFFSET -39.0811 -0.00228153 -0.0401928
				CHANNELS 6 Xposition Yposition Zposition Zrotation Xrotation Yrotation 
				JOINT Foot_R
				{
					OFFSET -40.9854 0.0 0.0
					CHANNELS 6 Xposition Yposition Zposition Zrotation Xrotation Yrotation 
					JOINT Toes_R
					{
						OFFSET -11.7543 0.0 0.0
						CHANNELS 6 Xposition Yposition Zposition Zrotation Xrotation Yrotation 
						End Site
						{
							OFFSET 0.0 0.0 0.0
						}
					}
				}
			}
		}
	}
}
MOTION
Frames:	4
Frame Time:	0.0333333
0.000000 0.000000 0.000000 0.000000 0.000000 -0.000000 -1.108030 91.772100 -0.006285 87.863200 -1.980020 4.303670 15.735700 0.000005 -0.000001 71.640500 86.124100 -67.954300 8.984550 -0.406207 -0.000000 -0.310860 -2.700580 7.362160 16.377300 -0.000001 -0.000001 1.372330 0.029512 -0.223390 6.456720 -0.000001 -0.000000 1.035440 0.326158 3.306160 12.994200 -0.242716 4.980390 -85.106900 -10.545600 -64.931600 5.348090 -0.000007 -0.000001 -61.111100 -53.484800 -92.563100 24.328600 0.000019 0.000005 0.086691 0.070931 -50.697800 22.291600 -0.000001 0.000005 19.118100 5.653380 -15.346300 12.994500 -0.242716 -4.980390 91.040100 -3.189560 -71.928100 -5.348130 -0.000001 -0.000004 -62.018900 78.222400 13.975800 -24.328900 0.000322 -0.000009 21.166300 1.503860 -86.123300 -22.291500 -0.000108 -0.000004 41.095600 5.680630 -22.390100 -2.192480 -6.469440 -0.000000 -169.891000 -17.218500 -2.602060 39.081100 -0.000007 -0.000012 -0.162040 0.352723 24.674200 40.985400 -0.000006 -0.000013 -5.801320 -0.926577 -65.842700 11.754300 -0.000000 0.000003 -0.000060 -0.000666 -16.603400 -2.192510 6.469440 -0.000001 175.445000 21.439300 178.461000 -39.081100 -0.002282 -0.040193 0.032529 -0.067817 23.305100 -40.985400 0.000008 0.000006 0.181695 1.704250 -65.832500 -11.754300 -0.000006 -0.000006 -0.005564 -0.066825 -19.292500
0.000000 0.000000 0.000000 0.000000 0.000000 -0.000000 -1.138880 91.775500 -0.029074 87.861700 -2.034030 4.258300 15.735700 0.000005 -0.000001 71.514300 86.110300 -67.826500 8.984550 -0.406207 -0.000000 -0.289108 -2.724990 7.365650 16.377300 -0.000001 -0.000001 1.404970 0.025493 -0.236984 6.456720 -0.000001 -0.000000 1.086350 0.386023 3.266060 12.994200 -0.242716 4.980390 -85.123800 -10.509000 -64.932400 5.348090 -0.000007 -0.000001 -60.726000 -53.495600 -92.186700 24.328600 0.000019 0.000005 0.163834 0.133979 -50.718100 22.291600 -0.000001 0.000005 19.074300 5.653180 -15.327100 12.994500 -0.242716 -4.980390 91.030100 -3.147180 -71.865900 -5.348130 -0.000001 -0.000004 -61.643000 78.168600 13.640600 -24.328900 0.000322 -0.000009 21.180000 1.479040 -86.189800 -22.291500 -0.000108 -0.000004 40.962600 5.680580 -22.412400 -2.192480 -6.469440 -0.000000 -169.874000 -17.287400 -2.632590 39.081100 -0.000007 -0.000012 -0.158336 0.345164 24.642400 40.985400 -0.000006 -0.000013 -5.810010 -0.877738 -65.808800 11.754300 -0.000000 0.000003 -0.000057 -0.000636 -16.602200 -2.192510 6.469440 -0.000001 175.489000 21.393200 178.391000 -39.081100 -0.002282 -0.040193 0.029456 -0.060709 23.296500 -40.985400 0.000008 0.000006 0.163675 1.732870 -65.814500 -11.754300 -0.000006 -0.000006 -0.005532 -0.066523 -19.280200
0.000000 0.000000 0.000000 0.000000 0.000000 -0.000000 -1.170990 91.784100 -0.041092 87.832100 -2.079750 4.234260 15.735700 0.000005 -0.000001 71.370300 86.093900 -67.672700 8.984550 -0.406207 -0.000000 -0.263078 -2.753800 7.385920 16.377300 -0.000001 -0.000001 1.458560 0.034487 -0.251654 6.456720 -0.000001 -0.000000 1.107440 0.402221 3.257420 12.994200 -0.242716 4.980390 -85.130400 -10.498800 -64.941200 5.348090 -0.000007 -0.000001 -60.143800 -53.502100 -91.613600 24.328600 0.000019 0.000005 0.114428 0.093583 -50.713200 22.291600 -0.000001 0.000005 19.136300 5.652940 -15.302800 12.994500 -0.242716 -4.980390 91.027200 -3.122960 -71.782900 -5.348130 -0.000001 -0.000004 -61.157200 78.202700 13.200500 -24.328900 0.000322 -0.000009 21.222200 1.448700 -86.275900 -22.291500 -0.000108 -0.000004 40.861900 5.680740 -22.341900 -2.192480 -6.469440 -0.000000 -169.807000 -17.395000 -2.623580 39.081100 -0.000007 -0.000012 -0.159611 0.348804 24.588800 40.985400 -0.000006 -0.000013 -5.819860 -0.812186 -65.761900 11.754300 -0.000000 0.000003 -0.000057 -0.000631 -16.602000 -2.192510 6.469440 -0.000001 175.556000 21.401100 178.380000 -39.081100 -0.002282 -0.040193 0.030059 -0.062266 23.243700 -40.985400 0.000008 0.000006 0.241630 1.766250 -65.789700 -11.754300 -0.000006 -0.000006 -0.005348 -0.064798 -19.209800
0.000000 0.000000 0.000000 0.000000 0.000000 -0.000000 -1.205020 91.784500 -0.056520 87.819300 -2.142830 4.198650 15.735700 0.000005 -0.000001 71.375000 86.082200 -67.675900 8.984550 -0.406207 -0.000000 -0.240389 -2.760050 7.389400 16.377300 -0.000001 -0.000001 1.486050 -0.016560 -0.265082 6.456720 -0.000001 -0.000000 1.093980 0.345591 3.289340 12.994200 -0.242716 4.980390 -85.128100 -10.511400 -64.957100 5.348090 -0.000007 -0.000001 -59.435900 -53.565800 -90.918800 24.328600 0.000019 0.000005 0.138643 0.113553 -50.674100 22.291600 -0.000001 0.000005 19.033000 5.651950 -15.204000 12.994500 -0.242716 -4.980390 91.020200 -3.094240 -71.741300 -5.348130 -0.000001 -0.000004 -60.948500 78.153100 13.039900 -24.328900 0.000322 -0.000009 21.335000 1.427780 -86.350800 -22.291500 -0.000108 -0.000004 40.719000 5.680920 -22.248000 -2.192480 -6.469440 -0.000000 -169.768000 -17.468900 -2.645470 39.081100 -0.000007 -0.000012 -0.161576 0.353304 24.576200 40.985400 -0.000006 -0.000013 -5.842610 -0.801012 -65.742500 11.754300 -0.000000 0.000003 -0.000057 -0.000634 -16.602100 -2.192510 6.469440 -0.000001 175.612000 21.381800 178.322000 -39.081100 -0.002282 -0.040193 0.030536 -0.063378 23.243300 -40.985400 0.000008 0.000006 0.193560 1.792080 -65.777000 -11.754300 -0.000006 -0.000006 -0.005853 -0.069497 -19.401400
